<?xml version="1.0" encoding="UTF-8"?>
<!DOCTYPE svg PUBLIC "-//W3C//DTD SVG 1.1//EN" "http://www.w3.org/Graphics/SVG/1.1/DTD/svg11.dtd">
<!-- Creator: CorelDRAW 2017 -->
<svg xmlns="http://www.w3.org/2000/svg" xml:space="preserve" width="925px" height="933px" version="1.1" style="shape-rendering:geometricPrecision; text-rendering:geometricPrecision; image-rendering:optimizeQuality; fill-rule:evenodd; clip-rule:evenodd"
viewBox="0 0 112.88 113.85"
 xmlns:xlink="http://www.w3.org/1999/xlink">
 <defs>
  <style type="text/css">
   <![CDATA[
    .fil0 {fill:#010101}
    .fil1 {fill:#4700CC}
   ]]>
  </style>
 </defs>
 <g id="Layer_x0020_1">
  <metadata id="CorelCorpID_0Corel-Layer"/>
  <path class="fil0" d="M49.13 81.86l9.84 0.36 0.14 -21.05 10.82 -0.14 0.32 51.08 10.57 -3.3 -0.91 -68.02c-0.2,-13.33 2.75,-12 -10.05,-11.85l-0.44 21.84 -10.74 0.17 0 -41.33c40.36,3.81 52.93,44.69 40.36,68.35 -5.97,11.26 -9.7,13.4 -12.79,16.32l0.13 10.66c21.23,-10.18 32.67,-40.59 23.06,-67.32 -8,-22.26 -29.9,-40.63 -61.22,-37.22l0.91 81.45z"/>
  <path class="fil1" d="M64.44 113.08l0.26 -9.12c-26.38,0.19 -41.14,-6.35 -51.7,-29.64 -9.41,-20.73 1.5,-45.8 13.8,-53.95l-0.11 -11.55c-27.9,13.28 -41.71,67.53 -1.97,95.16 9.97,6.94 24.61,11.83 39.72,9.1z"/>
  <polygon class="fil1" points="32.98,23.14 33.03,82 43.03,82.33 42.96,18.44 "/>
  <polygon class="fil1" points="32.6,4.86 32.51,15.47 42.49,10.82 42.52,1.86 "/>
 </g>
</svg>
